<svg xmlns="http://www.w3.org/2000/svg" width="16" height="16">
  <g fill="#777" transform="translate(0 -292.77)">
    <path d="M8 292.87a7.75 7.75 0 0 0-4.84 1.63l-.68.51-.78-.75c-.84-.83-1.13-.93-1.5-.56-.19.19-.2.33-.2 2.75V299l.25.25.24.25H5.5l.26-.26c.38-.37.26-.66-.64-1.57l-.77-.78.3-.24a5.36 5.36 0 1 1 5.25 9.2c-.52.22-.87.28-1.7.32-.95.04-1.13.02-1.84-.22a5.36 5.36 0 0 1-2.3-1.45c-.26-.28-.52-.5-.58-.5a6.5 6.5 0 0 0-1.68 1.74c0 .29 1.16 1.4 1.95 1.87.75.45 1.71.84 2.55 1.03.96.22 3.03.14 3.95-.15a8.06 8.06 0 0 0 5.71-8.2 7.71 7.71 0 0 0-4.51-6.65 6.77 6.77 0 0 0-3.45-.77z"/>
    <rect width="4.58" height="2" x="3.94" y="300.57" fill-rule="evenodd" paint-order="fill markers stroke" ry="1"/>
    <rect width="1.95" height="5.88" x="238.56" y="178.49" fill-rule="evenodd" paint-order="fill markers stroke" ry=".97" transform="rotate(51.1)"/>
    <rect width=".02" height=".43" x="6.45" y="301.46" fill-rule="evenodd" paint-order="fill markers stroke" ry=".01"/>
  </g>
</svg>