<svg xmlns="http://www.w3.org/2000/svg" width="121" height="32">
  <path fill="#cb0c29" d="M0 31.92l24.49.08c2.33-.54 3.66-2.3 4.81-3.41 1.74-2.29 2.69-4 2.87-5.3L31.88 0H0z"/>
  <path fill="#fff" d="M21.2 26L10.21 10.47v12.19q0 .61.11.96.12.36.32.55.19.19.45.26.28.06.56.06h1.18v1.5H5.47v-1.5h1.18q.3 0 .56-.06.26-.07.45-.26.21-.19.32-.55.11-.36.11-.96V9.08q0-.56-.12-.89-.1-.35-.31-.53-.19-.17-.45-.23-.26-.07-.55-.07H5.47V5.88h6.27l9.95 14.06V9.08q0-.56-.12-.89-.11-.34-.32-.52-.19-.18-.45-.23-.26-.07-.55-.07h-1.18V5.88h7.36v1.49h-1.18q-.29 0-.55.07-.26.06-.47.25-.19.19-.3.55-.11.36-.11.96V26zm12.84-11.6q-1.01 0-1.6 1-.58 1-.64 2.91h4.14q0-.91-.11-1.64-.11-.73-.34-1.23-.22-.5-.58-.77-.35-.27-.87-.27zm.22 11.83q-1.52 0-2.69-.44-1.16-.44-1.94-1.29-.78-.84-1.18-2.06-.4-1.23-.4-2.8 0-1.68.4-2.96.4-1.27 1.16-2.13.76-.85 1.86-1.27 1.11-.43 2.53-.43 1.3 0 2.34.37 1.04.36 1.77 1.09.73.73 1.11 1.8.39 1.08.39 2.5v1.23h-7.85q.04 1.2.26 2.07.23.87.63 1.43.41.56 1 .83.58.27 1.33.27.62 0 1.15-.14.53-.15.95-.41.43-.27.75-.62.33-.36.54-.77.64.35.64 1.17 0 .51-.28 1-.28.46-.87.81-.58.35-1.47.56-.88.21-2.09.21zm13.85-1.93q.47 0 .89-.06.43-.07.81-.16v1.56q-.19.09-.51.2-.32.11-.75.19-.42.09-.96.15t-1.17.06q-.81 0-1.46-.2-.66-.19-1.11-.63-.46-.46-.7-1.17-.25-.73-.25-1.78V14.8h-1.8v-1.23q.77 0 1.38-.3.61-.3.97-.7.74-.77 1.1-2.37h2v2.97h3.06v1.64h-3.06v7.42q0 1.09.36 1.59.37.5 1.22.5zm7.7 1.93q-1.3 0-2.22-.21-.91-.21-1.5-.58-.57-.37-.84-.89-.26-.51-.26-1.11 0-.58.22-.94.23-.36.57-.56.35-.2.74-.26.39-.07.7-.07 0 .75.19 1.35.19.6.53 1.02.34.41.81.63.48.22 1.06.22.62 0 1.06-.13.46-.13.74-.35.29-.23.43-.53.14-.3.14-.63 0-.4-.15-.7-.14-.32-.48-.58-.34-.28-.91-.54-.56-.27-1.4-.56-.97-.34-1.72-.71-.74-.39-1.25-.87-.5-.49-.77-1.11-.26-.63-.26-1.44 0-.96.36-1.67.37-.71 1.05-1.18.68-.48 1.63-.71.95-.23 2.11-.23 1.13 0 1.93.2.8.19 1.3.5.5.32.74.71.23.4.23.81 0 .81-.57 1.23-.56.42-1.87.42 0-1.19-.54-1.85-.53-.67-1.57-.67-.39 0-.75.09-.35.09-.62.28-.26.19-.42.47-.15.27-.15.64 0 .39.14.69.15.3.51.58.37.27 1.01.55.63.28 1.61.62.8.28 1.46.64.68.35 1.16.82.49.46.76 1.05.27.58.27 1.35 0 1-.35 1.78-.34.78-1.01 1.32-.67.54-1.64.83-.97.28-2.21.28zm6.76 4.25q.27 0 .56-.06.3-.05.55-.21.26-.16.42-.47.18-.3.18-.82V16.1q0-.55-.13-.88-.12-.33-.34-.5-.21-.18-.51-.23-.29-.06-.63-.06h-.17v-1.27h4.69l.43 1.87h.11q.26-.47.6-.85.35-.39.8-.67.46-.28 1.02-.43.56-.15 1.25-.15 1.19 0 2.11.4.92.39 1.54 1.22.62.82.94 2.08.33 1.26.33 3.01 0 1.73-.32 3-.32 1.25-.94 2.07-.61.82-1.51 1.22-.89.39-2.06.39-1.37 0-2.22-.51-.85-.53-1.37-1.4h-.16l.09 1.08q.04.44.06.95.04.5.04.88v1.65q0 .51.16.82.18.3.42.47.26.16.55.21.3.06.56.06h.53v1.27H62.3v-1.27zm7.79-5.97q1.2 0 1.72-1.2.53-1.22.53-3.66 0-2.39-.53-3.66-.51-1.27-1.7-1.27-.71 0-1.19.33-.48.32-.76.95-.28.62-.4 1.54-.12.91-.12 2.09 0 1.24.12 2.16.12.91.4 1.52t.75.91q.47.29 1.18.29zM84.53 14.4q-1.01 0-1.6 1-.58 1-.64 2.91h4.14q0-.91-.11-1.64-.11-.73-.34-1.23-.22-.5-.58-.77-.35-.27-.87-.27zm.22 11.83q-1.52 0-2.69-.44-1.16-.44-1.94-1.29-.78-.84-1.18-2.06-.4-1.23-.4-2.8 0-1.68.4-2.96.4-1.27 1.16-2.13.76-.85 1.86-1.27 1.11-.43 2.53-.43 1.3 0 2.34.37 1.04.36 1.77 1.09.73.73 1.11 1.8.39 1.08.39 2.5v1.23h-7.85q.04 1.2.26 2.07.23.87.63 1.43.41.56 1 .83.58.27 1.33.27.62 0 1.15-.14.53-.15.95-.41.43-.27.75-.62.33-.36.54-.77.64.35.64 1.17 0 .51-.28 1-.28.46-.87.81-.58.35-1.47.56-.88.21-2.09.21zm11.12-3.8q0 1.03.33 1.54t1.03.51q.51 0 .92-.21.42-.22.71-.62.3-.4.46-.96.16-.57.16-1.27v-1.8l-1.08.07q-.71.04-1.2.23t-.78.53q-.29.34-.42.83-.13.49-.13 1.15zM98 14.31q-.46 0-.77.2-.3.19-.49.54-.19.34-.27.82-.07.47-.07 1.03-1.61 0-2.43-.36-.81-.36-.81-1.24 0-.66.39-1.12.4-.47 1.06-.76.68-.29 1.57-.42.9-.14 1.92-.14 1.26 0 2.2.22.95.21 1.57.69.63.48.95 1.26.32.77.32 1.89v6.11q0 .49.07.82.08.33.25.53.16.19.44.27.28.08.68.08h.09V26h-4.46l-.5-1.65h-.21q-.4.48-.75.84-.35.35-.75.58-.4.23-.9.34-.49.12-1.17.12-.8 0-1.49-.23-.68-.23-1.19-.71-.5-.49-.8-1.22-.29-.74-.29-1.73 0-1.95 1.33-2.89 1.35-.94 4.04-1.02l1.97-.07v-1.32q0-.6-.05-1.1-.05-.5-.2-.87-.15-.36-.46-.56-.29-.2-.78-.2zM120.68 26h-.34q-1.31 0-2.2-.06-.89-.06-1.53-.27-.64-.21-1.11-.63-.47-.43-.94-1.17l-2.13-3.36-.96.71v1.94q0 .51.16.82.18.3.42.47.26.16.56.22.3.05.56.05h.28v1.27h-7.61v-1.27h.28q.27 0 .56-.05.3-.06.55-.22.26-.16.42-.47.18-.3.18-.82V10.52q0-.48-.18-.76-.16-.29-.42-.44-.26-.16-.56-.21-.29-.05-.55-.05h-.28V7.79h5.63v9.24l-.02.76q-.01.42-.04.81l-.06.92 3.02-3.38q.4-.44.51-.7.13-.27.13-.44 0-.3-.33-.47-.32-.18-.91-.18v-1.2h6.04v1.2q-.83 0-1.64.49-.8.48-1.74 1.54l-1.51 1.72 3.18 4.75q.63.95 1.27 1.4.64.46 1.22.46h.08z"/>
</svg>