<?xml version="1.0" encoding="UTF-8" standalone="no"?>
<svg xmlns:svg="http://www.w3.org/2000/svg" xmlns="http://www.w3.org/2000/svg" version="1.1" viewBox="0 0 16 16" height="16" width="16">
<g>
 <path d="m 8.84,1.3069099 v 2.45829 H 6.0798148 v -2.45829 z m 0.3171988,4.4068 v 7.96 h 2.7868177 q 0.838311,0 1.189496,0.32853 0.36,0.3172 0.36,0.83831 0,0.50979 -0.36,0.83831 -0.35,0.3172 -1.189496,0.3172 H 4.05 q -0.8383111,0 -1.20,-0.3172 Q 2.5,15.35 2.5,14.83 q 0,-0.50978 0.35,-0.82698 0.36,-0.32853 1.20,-0.32853 h 2.7868178 v -5.64 H 4.969619 q -0.8269825,0 -1.1894954,-0.3172 -0.36,-0.32853 -0.36,-0.84964 0,-0.50978 0.35,-0.82698 0.36,-0.32853 1.20,-0.32853 z"/>
</g>
</svg>
