<?xml version="1.0" encoding="UTF-8" standalone="no"?>
<svg xmlns:svg="http://www.w3.org/2000/svg" xmlns="http://www.w3.org/2000/svg" version="1.1" viewBox="0 0 121 32" height="32" width="121">
<g>
 <path style="fill:#cb0c29;stroke:none" d="M 0,31.92 24.49,32 c 2.33,-.54 3.66,-2.3 4.81,-3.41 1.74,-2.29 2.69,-4 2.87,-5.3 L 31.88,0 0,0 Z"/>
 <path d="M 21.2,26 10.21,10.47 v 12.19 q 0,.61 .11,0.96 0.12,0.36 0.32,0.55 0.19,0.19 0.45,0.26 0.28,0.06 0.56,0.06 h 1.18 v 1.5 H 5.47 v -1.5 h 1.18 q 0.3,0 0.56,-0.06 0.26,-0.07 0.45,-0.26 0.21,-0.19 0.32,-0.55 0.11,-0.36 0.11,-0.96 V 9.08 q 0,-0.56 -0.12,-0.89 Q 7.87,7.84 7.66,7.66 7.47,7.49 7.21,7.43 6.95,7.36 6.66,7.36 H 5.47 V 5.88 H 11.74 L 21.69,19.94 V 9.08 q 0,-0.56 -0.12,-0.89 -0.11,-0.34 -0.32,-0.52 -0.19,-0.18 -0.45,-0.23 -0.26,-0.07 -0.55,-0.07 h -1.18 V 5.88 h 7.36 v 1.49 h -1.18 q -0.29,0 -0.55,0.07 -0.26,0.06 -0.47,0.25 -0.19,0.19 -0.3,0.55 -0.11,0.36 -0.11,0.96 V 26 Z"/>
 <path d="m 34.04,14.4 q -1.01,0 -1.6,1 -0.58,1 -0.64,2.91 h 4.14 q 0,-0.91 -0.11,-1.64 -0.11,-0.73 -0.34,-1.23 -0.22,-0.5 -0.58,-0.77 -0.35,-0.27 -0.87,-0.27 z m 0.22,11.83 q -1.52,0 -2.69,-0.44 -1.16,-0.44 -1.94,-1.29 -0.78,-0.84 -1.18,-2.06 -0.4,-1.23 -0.4,-2.8 0,-1.68 0.4,-2.96 0.4,-1.27 1.16,-2.13 0.76,-0.85 1.86,-1.27 1.11,-0.43 2.53,-0.43 1.3,0 2.34,0.37 1.04,0.36 1.77,1.09 0.73,0.73 1.11,1.8 0.39,1.08 0.39,2.5 v 1.23 h -7.85 q 0.04,1.2 0.26,2.07 0.23,0.87 0.63,1.43 0.41,0.56 1,0.83 0.58,0.27 1.33,0.27 0.62,0 1.15,-0.14 0.53,-0.15 0.95,-0.41 0.43,-0.27 0.75,-0.62 0.33,-0.36 0.54,-0.77 0.64,0.35 0.64,1.17 0,0.51 -0.28,1 -0.28,0.46 -0.87,0.81 -0.58,0.35 -1.47,0.56 -0.88,0.21 -2.09,0.21 z"/>
 <path d="m 48.11,24.3 q 0.47,0 0.89,-0.06 0.43,-0.07 0.81,-0.16 v 1.56 q -0.19,0.09 -0.51,0.2 -0.32,0.11 -0.75,0.19 -0.42,0.09 -0.96,0.15 -0.54,0.06 -1.17,0.06 -0.81,0 -1.46,-0.2 -0.66,-0.19 -1.11,-0.63 -0.46,-0.46 -0.7,-1.17 -0.25,-0.73 -0.25,-1.78 v -7.66 h -1.8 v -1.23 q 0.77,0 1.38,-0.3 0.61,-0.3 0.97,-0.7 0.74,-0.77 1.1,-2.37 h 2 v 2.97 h 3.06 v 1.64 h -3.06 v 7.42 q 0,1.09 0.36,1.59 0.37,0.5 1.22,0.5 z"/>
 <path d="m 55.81,26.23 q -1.3,0 -2.22,-0.21 -0.91,-0.21 -1.5,-0.58 -0.57,-0.37 -0.84,-0.89 -0.26,-0.51 -0.26,-1.11 0,-0.58 0.22,-0.94 0.23,-0.36 0.57,-0.56 0.35,-0.2 0.74,-0.26 0.39,-0.07 0.7,-0.07 0,0.75 0.19,1.35 0.19,0.6 0.53,1.02 0.34,0.41 0.81,0.63 0.48,0.22 1.06,0.22 0.62,0 1.06,-0.13 0.46,-0.13 0.74,-0.35 0.29,-0.23 0.43,-0.53 0.14,-0.3 0.14,-0.63 0,-0.4 -0.15,-0.7 -0.14,-0.32 -0.48,-0.58 -0.34,-0.28 -0.91,-0.54 -0.56,-0.27 -1.4,-0.56 -0.97,-0.34 -1.72,-0.71 -0.74,-0.39 -1.25,-0.87 -0.5,-0.49 -0.77,-1.11 -0.26,-0.63 -0.26,-1.44 0,-0.96 0.36,-1.67 0.37,-0.71 1.05,-1.18 0.68,-0.48 1.63,-0.71 0.95,-0.23 2.11,-0.23 1.13,0 1.93,0.2 0.8,0.19 1.3,0.5 0.5,0.32 0.74,0.71 0.23,0.4 0.23,0.81 0,0.81 -0.57,1.23 -0.56,0.42 -1.87,0.42 0,-1.19 -0.54,-1.85 -0.53,-0.67 -1.57,-0.67 -0.39,0 -0.75,0.09 -0.35,0.09 -0.62,0.28 -0.26,0.19 -0.42,0.47 -0.15,0.27 -0.15,0.64 0,0.39 0.14,0.69 0.15,0.3 0.51,0.58 0.37,0.27 1.01,0.55 0.63,0.28 1.61,0.62 0.8,0.28 1.46,0.64 0.68,0.35 1.16,0.82 0.49,0.46 0.76,1.05 0.27,0.58 0.27,1.35 0,1 -0.35,1.78 -0.34,0.78 -1.01,1.32 -0.67,0.54 -1.64,0.83 -0.97,0.28 -2.21,0.28 z"/>
 <path d="m 62.57,30.48 q 0.27,0 0.56,-0.06 0.3,-0.05 0.55,-0.21 0.26,-0.16 0.42,-0.47 0.18,-0.3 0.18,-0.82 v -12.82 q 0,-0.55 -0.13,-0.88 -0.12,-0.33 -0.34,-0.5 -0.21,-0.18 -0.51,-0.23 -0.29,-0.06 -0.63,-0.06 H 62.5 v -1.27 h 4.69 l 0.43,1.87 h 0.11 q 0.26,-0.47 0.6,-0.85 0.35,-0.39 0.8,-0.67 0.46,-0.28 1.02,-0.43 0.56,-0.15 1.25,-0.15 1.19,0 2.11,0.4 0.92,0.39 1.54,1.22 0.62,0.82 0.94,2.08 0.33,1.26 0.33,3.01 0,1.73 -0.32,3 -0.32,1.25 -0.94,2.07 -0.61,0.82 -1.51,1.22 -0.89,0.39 -2.06,0.39 -1.37,0 -2.22,-0.51 -0.85,-0.53 -1.37,-1.4 h -0.16 q 0.05,0.55 0.09,1.08 0.04,0.44 0.06,0.95 0.04,0.5 0.04,0.88 v 1.65 q 0,0.51 0.16,0.82 0.18,0.3 0.42,0.47 0.26,0.16 0.55,0.21 0.3,0.06 0.56,0.06 h 0.53 v 1.27 h -7.85 v -1.27 z m 7.79,-5.97 q 1.2,0 1.72,-1.2 0.53,-1.22 0.53,-3.66 0,-2.39 -0.53,-3.66 -0.51,-1.27 -1.7,-1.27 -0.71,0 -1.19,0.33 -0.48,0.32 -0.76,0.95 -0.28,0.62 -0.4,1.54 -0.12,0.91 -0.12,2.09 0,1.24 0.12,2.16 0.12,0.91 0.4,1.52 0.28,0.61 0.75,0.91 0.47,0.29 1.18,0.29 z"/>
 <path d="m 84.53,14.4 q -1.01,0 -1.6,1 -0.58,1 -0.64,2.91 h 4.14 q 0,-0.91 -0.11,-1.64 -0.11,-0.73 -0.34,-1.23 -0.22,-0.5 -0.58,-0.77 -0.35,-0.27 -0.87,-0.27 z m 0.22,11.83 q -1.52,0 -2.69,-0.44 -1.16,-0.44 -1.94,-1.29 -0.78,-0.84 -1.18,-2.06 -0.4,-1.23 -0.4,-2.8 0,-1.68 0.4,-2.96 0.4,-1.27 1.16,-2.13 0.76,-0.85 1.86,-1.27 1.11,-0.43 2.53,-0.43 1.3,0 2.34,0.37 1.04,0.36 1.77,1.09 0.73,0.73 1.11,1.8 0.39,1.08 0.39,2.5 v 1.23 h -7.85 q 0.04,1.2 0.26,2.07 0.23,0.87 0.63,1.43 0.41,0.56 1,0.83 0.58,0.27 1.33,0.27 0.62,0 1.15,-0.14 0.53,-0.15 0.95,-0.41 0.43,-0.27 0.75,-0.62 0.33,-0.36 0.54,-0.77 0.64,0.35 0.64,1.17 0,0.51 -0.28,1 -0.28,0.46 -0.87,0.81 -0.58,0.35 -1.47,0.56 -0.88,0.21 -2.09,0.21 z"/>
 <path d="m 95.87,22.43 q 0,1.03 0.33,1.54 0.33,0.51 1.03,0.51 0.51,0 0.92,-0.21 0.42,-0.22 0.71,-0.62 0.3,-0.4 0.46,-0.96 0.16,-0.57 0.16,-1.27 v -1.8 l -1.08,0.07 q -0.71,0.04 -1.2,0.23 -0.49,0.19 -0.78,0.53 -0.29,0.34 -0.42,0.83 -0.13,0.49 -0.13,1.15 z m 2.13,-8.12 q -0.46,0 -0.77,0.2 -0.3,0.19 -0.49,0.54 -0.19,0.34 -0.27,0.82 -0.07,0.47 -0.07,1.03 -1.61,0 -2.43,-0.36 -0.81,-0.36 -0.81,-1.24 0,-0.66 0.39,-1.12 0.4,-0.47 1.06,-0.76 0.68,-0.29 1.57,-0.42 0.9,-0.14 1.92,-0.14 1.26,0 2.2,0.22 0.95,0.21 1.57,0.69 0.63,0.48 0.95,1.26 0.32,0.77 0.32,1.89 v 6.11 q 0,0.49 0.07,0.82 0.08,0.33 0.25,0.53 0.16,0.19 0.44,0.27 0.28,0.08 0.68,0.08 h 0.09 v 1.27 h -4.46 l -0.5,-1.65 h -0.21 q -0.4,0.48 -0.75,0.84 -0.35,0.35 -0.75,0.58 -0.4,0.23 -0.9,0.34 -0.49,0.12 -1.17,0.12 -0.8,0 -1.49,-0.23 -0.68,-0.23 -1.19,-0.71 -0.5,-0.49 -0.8,-1.22 -0.29,-0.74 -0.29,-1.73 0,-1.95 1.33,-2.89 1.35,-0.94 4.04,-1.02 l 1.97,-0.07 v -1.32 q 0,-0.6 -0.05,-1.1 -0.05,-0.5 -0.2,-0.87 -0.15,-0.36 -0.46,-0.56 -0.29,-0.2 -0.78,-0.2 z"/>
 <path d="m 120.68,26 h -0.34 q -1.31,0 -2.2,-0.06 -0.89,-0.06 -1.53,-0.27 -0.64,-0.21 -1.11,-0.63 -0.47,-0.43 -0.94,-1.17 l -2.13,-3.36 -0.96,0.71 v 1.94 q 0,0.51 0.16,0.82 0.18,0.3 0.42,0.47 0.26,0.16 0.56,0.22 0.3,0.05 0.56,0.05 h 0.28 v 1.27 h -7.61 v -1.27 h 0.28 q 0.27,0 0.56,-0.05 0.3,-0.06 0.55,-0.22 0.26,-0.16 0.42,-0.47 0.18,-0.3 0.18,-0.82 V 10.52 q 0,-0.48 -0.18,-0.76 -0.16,-0.29 -0.42,-0.44 -0.26,-0.16 -0.56,-0.21 -0.29,-0.05 -0.55,-0.05 h -0.28 V 7.79 h 5.63 v 9.24 q 0,0.33 -0.02,0.76 -0.01,0.42 -0.04,0.81 -0.04,0.46 -0.06,0.92 l 3.02,-3.38 q 0.4,-0.44 0.51,-0.7 0.13,-0.27 0.13,-0.44 0,-0.3 -0.33,-0.47 -0.32,-0.18 -0.91,-0.18 v -1.2 h 6.04 v 1.2 q -0.83,0 -1.64,0.49 -0.8,0.48 -1.74,1.54 l -1.51,1.72 3.18,4.75 q 0.63,0.95 1.27,1.4 0.64,0.46 1.22,0.46 h 0.08 z"/>
</g>
</svg>
