<?xml version="1.0" encoding="UTF-8" standalone="no"?>
<svg xmlns:svg="http://www.w3.org/2000/svg" xmlns="http://www.w3.org/2000/svg" version="1.1" viewBox="0 0 16 16" height="16" width="16">
<g>
 <path d="M 1.8,14.8 C 1.6,14.6 1.5,14.4 1.5,14.2 c 0,-0.1 0.4,-0.8 0.8,-1.4 0.4,-0.6 1.1,-1.5 1.5,-2.0 0.4,-0.5 0.8,-0.9 0.9,-0.9 0.2,0 1.6,1.2 1.6,1.4 0,0.1 -0.8,1 -1.8,2 -1.9,2 -2.2,2.1 -2.7,1.5 z m 7.5,-2.3 c -3,-2.5 -3.7,-3.1 -5.5,-4.6 -1.0,-0.9 -1.9,-1.7 -2,-1.8 -0.1,-0.3 0.2,-0.6 0.8,-0.7 1.4,-0.2 3.2,-0.5 3.5,-0.5 0.4,0 0.8,-0.4 2.7,-2.6 0.7,-0.8 1.4,-1.6 1.5,-1.6 0.1,-0.1 0.5,-0.1 0.7,-0.1 0.4,0 0.7,0.1 1.7,1.0 1.3,1.1 1.8,1.6 1.8,2.1 0,0.6 -0.1,0.8 -2.3,3.2 -1.4,1.6 -1.3,1.4 -1.2,3.8 0.2,3.1 0,3.3 -1.8,1.8 z" style="fill:#777777;stroke:none"/>
</g>
</svg>
